Coordinates
version=1
nRows=27
nColumns=38
inDegrees=no

Units are S.I. units (second, meters, Newtons, ...)
If the header above contains a line with 'inDegrees', this indicates whether rotational values are in degrees (yes) or radians (no).

endheader
time	pelvis_tilt	pelvis_list	pelvis_rotation	pelvis_tx	pelvis_ty	pelvis_tz	hip_flexion_r	hip_adduction_r	hip_rotation_r	knee_angle_r	ankle_angle_r	subtalar_angle_r	mtp_angle_r	hip_flexion_l	hip_adduction_l	hip_rotation_l	knee_angle_l	ankle_angle_l	subtalar_angle_l	mtp_angle_l	lumbar_extension	lumbar_bending	lumbar_rotation	arm_flex_r	arm_add_r	arm_rot_r	elbow_flex_r	pro_sup_r	wrist_flex_r	wrist_dev_r	arm_flex_l	arm_add_l	arm_rot_l	elbow_flex_l	pro_sup_l	wrist_flex_l	wrist_dev_l
155	2.38279	1.28747	-0.390008	-0.990278	0.411801	0.892086	0.167092	0.320145	-0.318407	0.36452	-0.284146	0	0	-0.106925	-0.705447	-0.375616	0.972034	-0.698132	0	0	-0.236268	0.392063	-0.567777	0.518553	-0.346028	1.5708	0.613436	0.511881	0	0	-0.080666	-0.360948	-0.839997	1.01729	1.41227	0	0
155.01	2.46693	1.2876	-0.468697	-0.987052	0.421664	0.89844	0.117208	0.326081	-0.325123	0.32586	-0.303642	0	0	-0.183579	-0.854902	-0.698132	0.974972	-0.698132	0	0	-0.229727	0.374384	-0.561195	0.493426	-0.326647	1.5708	0.570382	0.506219	0	0	-0.108723	-0.499291	0.459965	0.983564	1.5708	0	0
155.02	2.49476	1.26438	-0.501042	-0.986357	0.43294	0.899168	0.0724429	0.355777	-0.334788	0.300145	-0.305638	0	0	-0.174674	-0.872665	-0.698131	1.01198	-0.698132	0	0	-0.244171	0.381421	-0.558959	0.496066	-0.333733	1.5708	0.589428	0.48564	0	0	-0.0880662	-0.489018	0.447359	0.938	1.5708	0	0
155.03	2.26978	1.22975	-0.329152	-0.991206	0.450258	0.886751	0.102747	0.418442	-0.31713	0.315754	-0.275236	0	0	0.0349921	-0.68829	-0.0468713	1.15449	-0.698132	0	0	-0.187092	0.44326	-0.551117	0.530071	-0.409722	1.5708	0.703261	0.485006	0	0	-0.166922	-0.474292	0.421003	1.04157	1.5708	0	0
155.04	2.31764	1.24698	-0.338698	-0.991243	0.457002	0.891205	0.0830922	0.401319	-0.370947	0.290466	-0.279178	0	0	0.109302	-0.670091	0.00729514	1.16744	-0.698132	0	0	-0.169542	0.428074	-0.604554	0.52321	-0.380192	1.5708	0.667997	0.475991	0	0	-0.160144	-0.475574	0.426952	0.999611	1.5708	0	0
155.05	2.41238	1.26916	-0.488844	-0.985624	0.466424	0.899347	0.0335528	0.379015	-0.303729	0.284903	-0.293125	0	0	0.0418099	-0.722622	-0.259248	1.12176	-0.698132	0	0	-0.224207	0.37236	-0.546406	0.514299	-0.345176	1.5708	0.616993	0.475789	0	0	-0.125719	-0.474706	0.423385	0.938651	1.5708	0	0
155.06	2.43981	1.30126	-0.570473	-0.981345	0.477595	0.904531	0.0168944	0.351338	-0.248599	0.286491	-0.293105	0	0	0.0149267	-0.709145	-0.389433	1.09804	-0.698132	0	0	-0.242701	0.320483	-0.487595	0.500986	-0.338452	1.5708	0.598272	0.471932	0	0	-0.112279	-0.475817	0.439371	0.926067	1.5708	0	0
155.07	2.47993	1.30157	-0.638561	-0.980003	0.487146	0.906656	-0.0156616	0.346683	-0.230446	0.282373	-0.292242	0	0	0.0386759	-0.696218	-0.375454	1.12226	-0.698132	0	0	-0.265698	0.298726	-0.470701	0.506685	-0.334896	1.5708	0.600955	0.468785	0	0	-0.137241	-0.503087	0.462381	0.9937	1.5708	0	0
155.08	2.60007	1.27774	-0.774317	-0.978703	0.495302	0.910246	-0.0857931	0.345018	-0.235514	0.264988	-0.296824	0	0	-0.00025477	-0.667847	-0.356487	1.1081	-0.698132	0	0	-0.37229	0.249098	-0.411903	0.448002	-0.35438	1.34508	0.640379	0.613281	0	0	-0.11818	-0.51654	0.440575	1.06563	1.5708	0	0
155.09	2.51793	1.3097	-0.728611	-0.97675	0.507942	0.910474	-0.0682044	0.336457	-0.218153	0.261086	-0.290881	0	0	0.0685112	-0.648628	-0.343374	1.1207	-0.698132	0	0	-0.282784	0.262801	-0.429256	0.471188	-0.342846	1.43937	0.609175	0.577201	0	0	-0.132996	-0.504047	0.471378	0.990044	1.5708	0	0
155.1	2.49285	1.33284	-0.737174	-0.974455	0.51928	0.911481	-0.0525655	0.316168	-0.2236	0.301707	-0.275135	0	0	0.0970404	-0.619279	-0.345641	1.10932	-0.698132	0	0	-0.239885	0.259042	-0.442964	0.506194	-0.326873	1.55214	0.593483	0.492272	0	0	-0.153571	-0.480494	0.456931	0.93999	1.5708	0	0
155.11	2.55322	1.31932	-0.823253	-0.971701	0.52896	0.913951	-0.120377	0.323207	-0.18487	0.238292	-0.296561	0	0	0.0860414	-0.649084	-0.460591	1.08752	-0.698132	0	0	-0.281562	0.236021	-0.417062	0.502913	-0.329139	1.51735	0.607432	0.493148	0	0	-0.158774	-0.495355	0.444459	0.968577	1.5708	0	0
155.12	2.86036	1.31363	-1.09692	-0.970315	0.530779	0.92403	-0.179313	0.265167	-0.248633	0.220232	-0.318769	0	0	-0.339889	-0.514383	-0.698132	0.561533	-0.698132	0	0	-0.343917	0.176202	-0.454773	0.492435	-0.28098	1.45207	0.558846	0.529965	0	0	-0.109477	-0.5097	0.43972	0.894785	1.5708	0	0
155.13	2.74346	1.34429	-1.05465	-0.964794	0.545722	0.92178	-0.164286	0.269661	-0.173298	0.219553	-0.311577	0	0	0.0449747	-0.829706	-0.698132	1.38817	-0.698132	0	0	-0.311369	0.162281	-0.392184	0.465045	-0.298827	1.37471	0.577155	0.591385	0	0	-0.125123	-0.491613	0.424308	0.887801	1.5708	0	0
155.14	2.80714	1.34089	-1.1436	-0.961293	0.554852	0.924072	-0.17785	0.252675	-0.193067	0.250255	-0.29733	0	0	0.119541	-0.63682	-0.49794	1.22237	-0.698132	0	0	-0.327796	0.13679	-0.377434	0.455283	-0.290467	1.3277	0.575856	0.623062	0	0	-0.125431	-0.501683	0.422771	0.893916	1.5708	0	0
155.15	3.09837	1.29576	-1.49586	-0.963559	0.567425	0.933074	-0.270152	0.154368	-0.220057	0.25222	-0.296931	0	0	0.00977129	-0.556042	-0.446568	1.27729	-0.544953	0	0	-0.398491	0.0592502	-0.338809	0.448816	-0.304644	1.27682	0.594006	0.665986	0	0	-0.118412	-0.493907	0.41696	0.902502	1.5708	0	0
155.16	3.10779	1.28998	-1.5192	-0.961986	0.575367	0.93371	-0.309206	0.154365	-0.186252	0.200154	-0.314427	0	0	0.00602117	-0.507592	-0.427017	1.14469	-0.510369	0	0	-0.414447	0.0413083	-0.327428	0.439773	-0.305849	1.23099	0.604975	0.690373	0	0	-0.121332	-0.504184	0.406488	0.928286	1.5708	0	0
155.17	3.13737	1.28478	-1.56827	-0.958965	0.583637	0.935275	-0.329149	0.142597	-0.178514	0.19365	-0.318099	0	0	0.0384451	-0.419439	-0.431386	1.08469	-0.493658	0	0	-0.424664	0.0221334	-0.322473	0.438148	-0.295866	1.20632	0.60199	0.71	0	0	-0.122826	-0.508483	0.399403	0.924267	1.5708	0	0
155.18	2.7632	1.34223	-1.16481	-0.957673	0.590207	0.922404	-0.254224	0.254234	-0.146501	0.188968	-0.306094	0	0	0.192352	-0.619836	-0.46155	1.12297	-0.61398	0	0	-0.379277	0.106354	-0.381979	0.455857	-0.28533	1.1914	0.631779	0.763263	0	0	-0.218581	-0.554865	0.389698	1.0422	1.5708	0	0
155.19	2.76333	1.34115	-1.1874	-0.954718	0.599536	0.92272	-0.274467	0.252414	-0.127412	0.180348	-0.305991	0	0	0.20742	-0.549335	-0.496218	1.08906	-0.505972	0	0	-0.346432	0.103291	-0.336449	0.434013	-0.296673	1.17403	0.619867	0.757966	0	0	-0.145954	-0.508298	0.374849	0.93127	1.5708	0	0
155.2	2.73246	1.34554	-1.1741	-0.95404	0.608639	0.92161	-0.263346	0.248829	-0.146696	0.222452	-0.285829	0	0	0.227873	-0.538021	-0.509258	1.05263	-0.501494	0	0	-0.348645	0.108976	-0.349509	0.450329	-0.291473	1.18394	0.627004	0.768148	0	0	-0.134515	-0.494587	0.322155	0.896832	1.5708	0	0
155.21	3.09347	1.27688	-1.59794	-0.952892	0.619407	0.93437	-0.394931	0.13271	-0.13471	0.173888	-0.305099	0	0	0.0572906	-0.391461	-0.536268	0.900884	-0.492826	0	0	-0.441108	0.000151821	-0.294295	0.439058	-0.294045	1.14625	0.622011	0.781271	0	0	-0.137206	-0.511396	0.368249	0.93105	1.5708	0	0
155.22	3.0819	1.29132	-1.5803	-0.953222	0.626582	0.932445	-0.386331	0.138577	-0.13635	0.176738	-0.300753	0	0	0.0832188	-0.328534	-0.329282	0.746374	-0.489856	0	0	-0.425889	0.00823822	-0.30385	0.438332	-0.289793	1.1304	0.617528	0.801638	0	0	-0.122012	-0.501183	0.394963	0.888976	1.5708	0	0
155.23	2.65395	1.34558	-1.129	-0.951425	0.634982	0.918165	-0.297403	0.25711	-0.11986	0.217206	-0.269071	0	0	0.305072	-0.512624	-0.495768	0.958022	-0.534033	0	0	-0.351376	0.107842	-0.335109	0.447254	-0.295923	1.1442	0.642441	0.818121	0	0	-0.142847	-0.492561	0.301036	0.904394	1.5708	0	0
155.24	2.65987	1.35148	-1.14028	-0.949741	0.643802	0.917493	-0.305792	0.252867	-0.117427	0.214366	-0.263978	0	0	0.346135	-0.484823	-0.405709	0.891166	-0.606027	0	0	-0.289884	0.119633	-0.298061	0.428657	-0.308499	1.16277	0.613055	0.778221	0	0	-0.0172468	-0.425546	0.691397	0.623116	1.5708	0	0
155.25	2.59306	1.35188	-1.08431	-0.948888	0.653238	0.915659	-0.332608	0.265991	-0.0716797	0.16715	-0.279979	0	0	0.357138	-0.501272	-0.576901	0.915313	-0.589715	0	0	-0.341771	0.121379	-0.355148	0.466476	-0.282233	1.16904	0.633715	0.824706	0	0	-0.152536	-0.48091	0.273934	0.880548	1.5708	0	0
155.26	3.01403	1.3007	-1.51898	-0.952074	0.660783	0.926734	-0.424145	0.153509	-0.144107	0.16825	-0.284318	0	0	0.09215	-0.224664	-0.136238	0.394868	-0.473762	0	0	-0.449486	0.0199566	-0.35848	0.462946	-0.268641	1.10958	0.62799	0.872473	0	0	-0.15976	-0.526714	0.35753	0.935775	1.5708	0	0
